<?xml version="1.0" encoding="UTF-8"?>
<svg width="31px" height="31px" viewBox="0 0 31 31" version="1.1" xmlns="http://www.w3.org/2000/svg" xmlns:xlink="http://www.w3.org/1999/xlink">
    <g id="Page-1" stroke="none" stroke-width="1" fill="none" fill-rule="evenodd">
        <g id="Dev-Test-Screen-1" transform="translate(-166.000000, -33.000000)" fill="#183A4F">
            <g id="Group-2" transform="translate(166.000000, 0.000000)">
                <g id="logo-dark" transform="translate(0.000000, 33.000000)">
                    <g id="logo/Sharrow-dark">
                        <g id="Sharrow">
                            <path d="M2.81818182,2.81818182 L2.81818182,28.1818182 L28.1818182,28.1818182 L28.1818182,2.81818182 L2.81818182,2.81818182 Z M1.40909091,0 L29.5909091,0 C30.3691285,0 31,0.630871489 31,1.40909091 L31,29.5909091 C31,30.3691285 30.3691285,31 29.5909091,31 L1.40909091,31 C0.630871489,31 0,30.3691285 0,29.5909091 L0,1.40909091 C0,0.630871489 0.630871489,0 1.40909091,0 Z" id="Stroke-1" fill-rule="nonzero"></path>
                            <path d="M20.4318182,10.5681818 L8.45454545,10.5681818 C7.67632603,10.5681818 7.04545455,9.93731033 7.04545455,9.15909091 C7.04545455,8.38087149 7.67632603,7.75 8.45454545,7.75 L21.8409091,7.75 C22.6191285,7.75 23.25,8.38087149 23.25,9.15909091 L23.25,22.5454545 C23.25,23.323674 22.6191285,23.9545455 21.8409091,23.9545455 C21.0626897,23.9545455 20.4318182,23.323674 20.4318182,22.5454545 L20.4318182,10.5681818 Z" id="Stroke-2" fill-rule="nonzero"></path>
                            <path d="M19.4354404,9.57180408 C19.9857247,9.02151985 20.8779117,9.02151985 21.4281959,9.57180408 C21.9784801,10.1220883 21.9784801,11.0142753 21.4281959,11.5645596 L9.45092319,23.5418323 C8.90063896,24.0921165 8.00845195,24.0921165 7.45816772,23.5418323 C6.90788349,22.9915481 6.90788349,22.099361 7.45816772,21.5490768 L19.4354404,9.57180408 Z" id="Stroke-3" fill-rule="nonzero"></path>
                        </g>
                    </g>
                </g>
            </g>
        </g>
    </g>
</svg>